<?xml version="1.0" encoding="UTF-8" standalone="no"?>
<!--
  wordchipper logo
  Canvas: 392×144, uniform margin 14px
  Illustration: translate(7.18,2.06) scale(1.706) — original paths verbatim
  illus right=134, bottom=130; text x=148, fs=56, word y=54, chipper y=118
-->

<svg
   width="867pt"
   height="478pt"
   viewBox="0 0 1156 637.33332"
   version="1.1"
   id="svg30"
   sodipodi:docname="wordchipper_preview.svg"
   inkscape:version="1.4.3 (0d15f75042, 2025-12-25)"
   inkscape:export-filename="wordchipper_preview.png"
   inkscape:export-xdpi="96"
   inkscape:export-ydpi="96"
   xmlns:inkscape="http://www.inkscape.org/namespaces/inkscape"
   xmlns:sodipodi="http://sodipodi.sourceforge.net/DTD/sodipodi-0.dtd"
   xmlns="http://www.w3.org/2000/svg"
   xmlns:svg="http://www.w3.org/2000/svg">
  <sodipodi:namedview
     id="namedview30"
     pagecolor="#ffffff"
     bordercolor="#000000"
     borderopacity="0.25"
     inkscape:showpageshadow="2"
     inkscape:pageopacity="0.0"
     inkscape:pagecheckerboard="0"
     inkscape:deskcolor="#d1d1d1"
     inkscape:zoom="0.8"
     inkscape:cx="656.875"
     inkscape:cy="178.75"
     inkscape:window-width="1857"
     inkscape:window-height="1214"
     inkscape:window-x="1230"
     inkscape:window-y="137"
     inkscape:window-maximized="0"
     inkscape:current-layer="svg30"
     showguides="true"
     inkscape:document-units="pt">
    <sodipodi:guide
       position="87.973633,324.75875"
       orientation="1,0"
       id="guide1"
       inkscape:locked="false" />
    <sodipodi:guide
       position="107.4733,427.51609"
       orientation="1,0"
       id="guide2"
       inkscape:locked="false" />
    <sodipodi:guide
       position="1180,867.49999"
       orientation="1,0"
       id="guide3"
       inkscape:locked="false" />
    <sodipodi:guide
       position="738.1192,533.30108"
       orientation="0,-1"
       id="guide4"
       inkscape:locked="false" />
    <sodipodi:guide
       position="817.85507,106.28601"
       orientation="0,-1"
       id="guide5"
       inkscape:locked="false" />
  </sodipodi:namedview>
  <defs
     id="defs5">
    <linearGradient
       id="bgGrad"
       x1="0"
       y1="0"
       x2="237.58788"
       y2="237.58788"
       gradientTransform="matrix(1.3724469,0,0,0.60609153,0.78884227,0.78884227)"
       gradientUnits="userSpaceOnUse">
      <stop
         offset="0%"
         stop-color="#0F0A06"
         id="stop1" />
      <stop
         offset="100%"
         stop-color="#1A0E07"
         id="stop2" />
    </linearGradient>
    <filter
       id="chipGlow"
       x="-0.10110683"
       y="-0.056611501"
       width="1.2022137"
       height="1.113223">
      <feGaussianBlur
         stdDeviation="1.0"
         result="blur"
         id="feGaussianBlur2" />
      <feMerge
         id="feMerge3">
        <feMergeNode
           in="blur"
           id="feMergeNode2" />
        <feMergeNode
           in="SourceGraphic"
           id="feMergeNode3" />
      </feMerge>
    </filter>
    <filter
       id="gearGlow"
       x="-0.16654193"
       y="-0.16554711"
       width="1.3319297"
       height="1.3310942">
      <feGaussianBlur
         stdDeviation="2.4"
         result="blur"
         id="feGaussianBlur3" />
      <feMerge
         id="feMerge5">
        <feMergeNode
           in="blur"
           id="feMergeNode4" />
        <feMergeNode
           in="SourceGraphic"
           id="feMergeNode5" />
      </feMerge>
    </filter>
  </defs>
  <!-- Background -->
  <!-- Illustration: scale=1.706, translate(7.18,2.06)
       orig bounds x:4–74.6, y:7–75
       → left=14, top=14, right=134, bottom=130  (margin=14 all sides) -->
  <!-- end illustration -->
  <!-- TYPE
       font-size=56, x=148
       word  baseline y=54  (cap top at y=14)
       chipper baseline y=118 (descender bottom at y=130 = H-M) -->
  <g
     id="g1"
     transform="matrix(2.8728,0,0,2.8728,107.47162,107.14222)">
    <rect
       width="326.07675"
       height="144"
       rx="8.318285"
       fill="url(#bgGrad)"
       id="rect5"
       style="fill:url(#bgGrad);stroke-width:0.912046"
       x="0.78884226"
       y="0.78884226" />
    <rect
       width="326.65216"
       height="144.13295"
       rx="8.332963"
       fill="none"
       stroke="#2a1608"
       stroke-width="1.44473"
       id="rect6"
       x="0.72236502"
       y="0.72236502" />
    <g
       id="g30"
       transform="translate(6.1941298,2.6546264)">
      <text
         x="141.39297"
         y="48.152271"
         font-family="Georgia, 'Times New Roman', serif"
         font-size="56px"
         font-weight="900"
         letter-spacing="-1"
         fill="#f0e8d8"
         id="text29"
         style="font-size:53.3333px">word</text>
      <text
         x="140.90469"
         y="123.2738"
         font-family="Georgia, 'Times New Roman', serif"
         font-size="56px"
         font-weight="900"
         letter-spacing="-1"
         fill="#f0e8d8"
         id="text29-8"
         style="font-size:24px"><tspan
           style="fill:#d4aa00"
           id="tspan30">rust tokenizer</tspan></text>
      <text
         x="139.7263"
         y="90.472794"
         font-family="Georgia, 'Times New Roman', serif"
         font-size="56px"
         font-weight="900"
         letter-spacing="-1"
         fill="#f07030"
         id="text30"
         style="font-size:53.3333px">chipper</text>
    </g>
    <g
       id="g31">
      <g
         transform="matrix(1.706,0,0,1.706,52.356472,91.359173)"
         fill="none"
         stroke="#f07030"
         stroke-width="0.8"
         opacity="0.35"
         filter="url(#gearGlow)"
         id="g6"
         style="stroke-width:1.23447;stroke-dasharray:none">
        <path
           d="m 15.887,-1.91253 1.7496,0.59085 1.7322,1.06679 v 0.50978 l -1.7322,1.06679 -1.7496,0.59085 -0.1421,0.94269 1.4978,1.08031 1.3407,1.52996 -0.1502,0.48713 -1.9697,0.50884 -1.846,0.04887 -0.4137,0.85893 1.1128,1.47379 0.8302,1.85715 -0.2871,0.4212 -2.0322,-0.0943 -1.7784,-0.4974 -0.6484,0.6988 0.6289,1.7363 0.2459,2.0194 L 11.877,15.3021 9.96293,14.6129 8.41011,13.6134 7.58449,14.0901 7.67371,15.9346 7.31349,17.9368 6.83895,18.123 5.21307,16.9003 4.02385,15.4875 3.09442,15.6997 2.63598,17.4886 1.70161,19.2956 1.19326,19.3337 0,17.6861 l -0.71994,-1.7006 -0.95067,-0.0712 -0.96537,1.5743 -1.42549,1.4513 -0.49699,-0.1134 -0.65461,-1.9262 -0.1867,-1.8372 -0.88743,-0.3483 -1.38651,1.2198 -1.78995,0.9667 -0.44148,-0.2549 -0.05779,-2.0335 0.36313,-1.8106 -0.7454,-0.5944 -1.6844,0.7569 -1.9954,0.3962 -0.3467,-0.3737 0.5442,-1.9602 0.8807,-1.62318 -0.5371,-0.78768 -1.8327,0.22681 -2.0235,-0.20959 -0.2212,-0.4593 1.0978,-1.7127 1.32,-1.29148 -0.281,-0.91098 -1.8182,-0.32347 -1.8718,-0.79672 -0.076,-0.50408 1.5539,-1.31305 1.642,-0.84501 v -0.95334 l -1.642,-0.84501 -1.5539,-1.31305 0.076,-0.50408 1.8718,-0.79672 1.8182,-0.32347 0.281,-0.91098 -1.32,-1.29148 -1.0978,-1.7127 0.2212,-0.4593 2.0235,-0.20959 1.8327,0.22681 0.5371,-0.78768 -0.8807,-1.62318 -0.5442,-1.9602 0.3467,-0.3737 1.9954,0.3962 1.6844,0.7569 0.7454,-0.5944 -0.36313,-1.8106 0.05779,-2.0335 0.44148,-0.2549 1.78995,0.9667 1.38651,1.2198 0.88743,-0.3483 0.1867,-1.8372 0.65461,-1.9262 0.49699,-0.1134 1.42549,1.4513 0.96537,1.5743 0.95067,-0.0712 L 0,-17.6861 l 1.19326,-1.6476 0.50835,0.0381 0.93437,1.807 0.45844,1.7889 0.92943,0.2122 1.18922,-1.4128 1.62588,-1.2227 0.47454,0.1862 0.36022,2.0022 -0.08922,1.8445 0.82562,0.4767 1.55282,-0.9995 1.91407,-0.6892 0.3985,0.3179 -0.2459,2.0194 -0.6289,1.7363 0.6484,0.6988 1.7784,-0.4974 2.0322,-0.0943 0.2871,0.4212 -0.8302,1.85715 -1.1128,1.47379 0.4137,0.85893 1.846,0.04887 1.9697,0.50884 0.1502,0.48713 -1.3407,1.52996 -1.4978,1.08031 z"
           id="path6"
           style="stroke-width:1.23447;stroke-dasharray:none" />
        <circle
           cx="0"
           cy="0"
           r="7.9375"
           id="circle6"
           style="stroke-width:1.23447;stroke-dasharray:none" />
      </g>
      <path
         fill="none"
         stroke="#f07030"
         stroke-width="0.72"
         stroke-linecap="square"
         d="M 34.613882,68.776271 34.400301,29.671876 45.506484,29.405859 45.720063,16.37106 h 26.056811 l 0.213581,55.597406"
         id="path8"
         style="stroke:#f0b630;stroke-width:1.89429;stroke-dasharray:none;stroke-opacity:1" />
      <path
         fill="none"
         stroke="#f07030"
         stroke-width="0.72"
         stroke-linecap="round"
         d="M 45.076219,16.37106 34.309211,28.869959"
         id="path9"
         style="stroke:#dc9210;stroke-width:1.89429;stroke-dasharray:none;stroke-opacity:1" />
      <g
         fill="none"
         stroke="#c8a870"
         stroke-width="0.55"
         stroke-linecap="round"
         opacity="0.9"
         id="g17"
         style="stroke-width:1.23447;stroke-dasharray:none"
         transform="matrix(1.3749689,0,0,1.712536,16.735925,2.6907731)">
        <path
           d="M 23.874859,12.204686 36.614057,12.1156"
           id="path10"
           style="stroke-width:1.23447;stroke-dasharray:none" />
        <path
           d="m 24.115681,15.135884 12.739198,-0.08909"
           id="path11"
           style="stroke-width:1.23447;stroke-dasharray:none" />
        <path
           d="M 15.679013,18.084315 36.970399,17.99523"
           id="path12"
           style="stroke-width:1.23447;stroke-dasharray:none" />
        <path
           d="m 16.032081,21.113507 21.291386,-0.08909"
           id="path13"
           style="stroke-width:1.23447;stroke-dasharray:none" />
        <path
           d="m 15.659705,24.096082 21.291386,-0.08909"
           id="path14"
           style="stroke-width:1.23447;stroke-dasharray:none" />
        <path
           d="m 16.012773,27.125274 21.291386,-0.08909"
           id="path15"
           style="stroke-width:1.23447;stroke-dasharray:none" />
        <path
           d="m 15.965267,29.981057 21.291386,-0.08909"
           id="path16"
           style="stroke-width:1.23447;stroke-dasharray:none" />
        <path
           d="m 16.318335,33.010249 21.291386,-0.08909"
           id="path17"
           style="stroke-width:1.23447;stroke-dasharray:none" />
      </g>
      <g
         filter="url(#chipGlow)"
         fill="#1a0e07"
         stroke="#e8c060"
         stroke-width="0.6"
         stroke-linecap="round"
         id="g28"
         style="stroke-width:0.941383;stroke-dasharray:none"
         transform="matrix(1.706,0,0,1.706,7.9688423,2.8488423)">
        <rect
           width="4.9008632"
           height="3.0288999"
           x="49.664463"
           y="48.907825"
           id="rect17"
           style="stroke-width:0.941383;stroke-dasharray:none" />
        <rect
           width="4.9008632"
           height="3.0288999"
           x="53.678638"
           y="39.473095"
           id="rect18"
           style="stroke-width:0.941383;stroke-dasharray:none" />
        <rect
           width="4.9008632"
           height="3.0288999"
           x="57.331135"
           y="55.597534"
           id="rect19"
           style="stroke-width:0.941383;stroke-dasharray:none" />
        <rect
           width="4.9008632"
           height="3.0288999"
           x="55.493301"
           y="29.738745"
           id="rect20"
           style="stroke-width:0.941383;stroke-dasharray:none" />
        <rect
           width="4.9008632"
           height="3.0288999"
           x="65.232994"
           y="38.948383"
           id="rect21"
           style="stroke-width:0.941383;stroke-dasharray:none" />
        <rect
           width="4.9008632"
           height="3.0288999"
           x="46.190121"
           y="59.864719"
           id="rect22"
           style="stroke-width:0.941383;stroke-dasharray:none" />
        <rect
           width="4.9008632"
           height="3.0288999"
           x="60.031307"
           y="47.860477"
           id="rect23"
           style="stroke-width:0.941383;stroke-dasharray:none" />
        <rect
           width="4.9008632"
           height="3.0288999"
           x="67.812019"
           y="31.066116"
           id="rect24"
           style="stroke-width:0.941383;stroke-dasharray:none" />
        <rect
           width="4.9008632"
           height="3.0288999"
           x="69.681915"
           y="21.806591"
           id="rect25"
           style="stroke-width:0.941383;stroke-dasharray:none" />
        <rect
           width="4.9008632"
           height="3.0288999"
           x="52.377991"
           y="18.881922"
           id="rect26"
           style="stroke-width:0.941383;stroke-dasharray:none" />
        <rect
           width="4.9008632"
           height="3.0288999"
           x="61.212784"
           y="20.14579"
           id="rect27"
           style="stroke-width:0.941383;stroke-dasharray:none" />
        <rect
           width="4.9008632"
           height="3.0288999"
           x="68.338226"
           y="12.184992"
           id="rect28"
           style="stroke-width:0.941383;stroke-dasharray:none" />
      </g>
      <path
         fill="none"
         stroke="#f07030"
         stroke-width="1"
         stroke-linecap="round"
         d="m 15.567818,16.526999 7.902935,11.550443 2.728555,33.427563 c -8.109328,7.236596 -13.21514,17.768012 -13.21514,29.491957 0,21.823348 17.691321,39.514668 39.514673,39.514668 10.836068,0 20.653395,-4.36175 27.792058,-11.42533 L 119.36983,106.19491 131.52819,86.741536 M 90.645698,15.311163 83.502661,26.861606 80.056179,62.694967 c 4.031328,3.924292 7.230885,8.701979 9.302005,14.043712 l 6.758778,-9.754481 -0.759899,-12.310341"
         id="path28"
         style="stroke-width:3.70599;stroke-dasharray:none" />
      <g
         transform="matrix(1.706,0,0,1.706,52.356472,91.359173)"
         fill="none"
         stroke="#f07030"
         stroke-width="0.72"
         stroke-miterlimit="4"
         stroke-linecap="square"
         id="g7"
         style="stroke-width:1.23447;stroke-dasharray:none">
        <path
           d="m 15.887,-1.91253 1.7496,0.59085 1.7322,1.06679 v 0.50978 l -1.7322,1.06679 -1.7496,0.59085 -0.1421,0.94269 1.4978,1.08031 1.3407,1.52996 -0.1502,0.48713 -1.9697,0.50884 -1.846,0.04887 -0.4137,0.85893 1.1128,1.47379 0.8302,1.85715 -0.2871,0.4212 -2.0322,-0.0943 -1.7784,-0.4974 -0.6484,0.6988 0.6289,1.7363 0.2459,2.0194 L 11.877,15.3021 9.96293,14.6129 8.41011,13.6134 7.58449,14.0901 7.67371,15.9346 7.31349,17.9368 6.83895,18.123 5.21307,16.9003 4.02385,15.4875 3.09442,15.6997 2.63598,17.4886 1.70161,19.2956 1.19326,19.3337 0,17.6861 l -0.71994,-1.7006 -0.95067,-0.0712 -0.96537,1.5743 -1.42549,1.4513 -0.49699,-0.1134 -0.65461,-1.9262 -0.1867,-1.8372 -0.88743,-0.3483 -1.38651,1.2198 -1.78995,0.9667 -0.44148,-0.2549 -0.05779,-2.0335 0.36313,-1.8106 -0.7454,-0.5944 -1.6844,0.7569 -1.9954,0.3962 -0.3467,-0.3737 0.5442,-1.9602 0.8807,-1.62318 -0.5371,-0.78768 -1.8327,0.22681 -2.0235,-0.20959 -0.2212,-0.4593 1.0978,-1.7127 1.32,-1.29148 -0.281,-0.91098 -1.8182,-0.32347 -1.8718,-0.79672 -0.076,-0.50408 1.5539,-1.31305 1.642,-0.84501 v -0.95334 l -1.642,-0.84501 -1.5539,-1.31305 0.076,-0.50408 1.8718,-0.79672 1.8182,-0.32347 0.281,-0.91098 -1.32,-1.29148 -1.0978,-1.7127 0.2212,-0.4593 2.0235,-0.20959 1.8327,0.22681 0.5371,-0.78768 -0.8807,-1.62318 -0.5442,-1.9602 0.3467,-0.3737 1.9954,0.3962 1.6844,0.7569 0.7454,-0.5944 -0.36313,-1.8106 0.05779,-2.0335 0.44148,-0.2549 1.78995,0.9667 1.38651,1.2198 0.88743,-0.3483 0.1867,-1.8372 0.65461,-1.9262 0.49699,-0.1134 1.42549,1.4513 0.96537,1.5743 0.95067,-0.0712 L 0,-17.6861 l 1.19326,-1.6476 0.50835,0.0381 0.93437,1.807 0.45844,1.7889 0.92943,0.2122 1.18922,-1.4128 1.62588,-1.2227 0.47454,0.1862 0.36022,2.0022 -0.08922,1.8445 0.82562,0.4767 1.55282,-0.9995 1.91407,-0.6892 0.3985,0.3179 -0.2459,2.0194 -0.6289,1.7363 0.6484,0.6988 1.7784,-0.4974 2.0322,-0.0943 0.2871,0.4212 -0.8302,1.85715 -1.1128,1.47379 0.4137,0.85893 1.846,0.04887 1.9697,0.50884 0.1502,0.48713 -1.3407,1.52996 -1.4978,1.08031 z"
           id="path7"
           style="stroke-width:1.23447;stroke-dasharray:none" />
        <circle
           cx="0"
           cy="0"
           r="7.9375"
           id="circle7"
           style="stroke-width:1.23447;stroke-dasharray:none" />
      </g>
    </g>
  </g>
</svg>
